<svg width="116" height="115" viewBox="0 0 116 115" fill="none" xmlns="http://www.w3.org/2000/svg">
<circle cx="58" cy="57.5" r="57.5" fill="#213653"/>
<path d="M46.0309 73.6577L45.4298 74.4859V74.4939L43.9012 76.5883C43.8967 76.592 43.893 76.5969 43.8905 76.6024C43.8879 76.6079 43.8865 76.6139 43.8864 76.6201L31.3979 93.7735H31.3905C31.3862 93.7776 31.3836 93.7832 31.383 93.7894L30.5 94.9998V87.124L45.4224 74.1913V74.1833L46.0309 73.6577Z" fill="url(#paint0_linear_240_1407)"/>
<path d="M65.0571 48.5728L64.3299 50.3486C64.323 50.358 64.3179 50.3688 64.3151 50.3805L46.5433 93.7575C46.5404 93.7691 46.5353 93.78 46.5284 93.7894L46.1351 94.7529L46.0312 94.9998V65.0651L64.3225 49.2098L65.0571 48.5728Z" fill="url(#paint1_linear_240_1407)"/>
<path d="M85.4998 20L84.8097 22.5403L84.8023 22.5483C84.8023 22.5483 84.8097 22.5483 84.8023 22.5563C84.8014 22.5647 84.7989 22.5728 84.7949 22.5802V22.5961C84.7924 22.6153 84.7875 22.6341 84.78 22.6518H84.7726C84.7633 22.6804 84.7558 22.7097 84.7504 22.7394L65.9397 91.7589V91.7828L65.9174 91.8704L65.2273 94.3868L65.0566 95V37.7187L83.385 21.8316C83.3924 21.8316 83.3998 21.8236 83.4073 21.8157L85.4998 20Z" fill="url(#paint2_linear_240_1407)"/>
<path d="M85.4998 20V95H65.0566L65.2273 94.3868L65.9174 91.8704L65.9397 91.7828V91.7589L84.7504 22.7394C84.7558 22.7097 84.7633 22.6804 84.7726 22.6518H84.78C84.7875 22.6341 84.7924 22.6153 84.7949 22.5961V22.5802C84.7989 22.5728 84.8014 22.5647 84.8023 22.5563C84.8097 22.5483 84.8023 22.5483 84.8023 22.5483L84.8097 22.5403L85.4998 20Z" fill="url(#paint3_linear_240_1407)"/>
<path d="M65.0571 48.5728V94.9998H46.0312L46.1351 94.7529L46.5284 93.7894C46.5353 93.78 46.5404 93.7691 46.5433 93.7575L64.3151 50.3805C64.3179 50.3688 64.323 50.358 64.3299 50.3486L65.0571 48.5728Z" fill="url(#paint4_linear_240_1407)"/>
<path d="M46.0309 73.6577V94.9998H30.5L31.383 93.7894C31.3836 93.7832 31.3862 93.7776 31.3905 93.7735H31.3979L43.9235 76.5564L45.4298 74.4859L46.0309 73.6577Z" fill="url(#paint5_linear_240_1407)"/>
<g style="mix-blend-mode:multiply" opacity="0.25">
<g style="mix-blend-mode:multiply" opacity="0.25">
<path d="M83.3848 21.8315C81.9452 23.257 80.476 24.6267 79.0067 26.0044C77.5375 27.4139 76.0385 28.7836 74.547 30.1613L70.0355 34.2546L65.7539 38.069L65.7835 43.1019C65.7909 44.9017 65.7984 46.6935 65.791 48.4932C65.7762 52.0768 65.7613 55.6683 65.702 59.2598C65.6871 61.0516 65.65 62.8514 65.6129 64.6431C65.5758 66.4349 65.5313 68.2347 65.4794 70.0265C65.4274 71.8183 65.3606 73.618 65.2938 75.4098C65.2271 77.2015 65.1603 79.0013 65.0564 80.8011C64.9525 79.0013 64.8857 77.2095 64.8115 75.4098C64.7373 73.61 64.6705 71.8263 64.626 70.0265C64.5815 68.2268 64.5295 66.4429 64.4999 64.6431C64.4702 62.8434 64.4182 61.0516 64.4034 59.2598C64.3589 56.2895 64.3366 53.3111 64.3292 50.3487C64.3292 49.9983 64.3218 49.6559 64.3218 49.3135V49.21L65.0564 48.5729V37.7186L83.3848 21.8315Z" fill="black"/>
</g>
</g>
<g style="mix-blend-mode:multiply" opacity="0.25">
<g style="mix-blend-mode:multiply" opacity="0.25">
<path d="M65.0564 48.5728C64.8091 48.8276 64.5642 49.0744 64.3219 49.3134C63.0753 50.5795 61.8063 51.798 60.5374 53.0164C59.0088 54.4657 57.4728 55.9071 55.9219 57.3246C54.3711 58.7421 52.8054 60.1437 51.2397 61.5373C49.7482 62.8353 48.2715 64.1652 46.7652 65.4474C46.7503 67.2471 46.7577 69.0548 46.7132 70.8546C46.6835 72.7897 46.6539 74.7168 46.5871 76.652C46.5425 78.5791 46.4609 80.5063 46.3793 82.4414C46.2828 84.3686 46.1864 86.3037 46.0305 88.2309C45.8821 86.3037 45.7857 84.3686 45.6892 82.4414C45.6076 80.5063 45.526 78.5791 45.4814 76.652C45.4592 75.9352 45.4369 75.2106 45.4295 74.4939V74.4859C45.4196 74.4362 45.4172 74.3851 45.4221 74.3346C45.4146 74.2871 45.4146 74.2387 45.4221 74.1912V74.1833L46.0305 73.6577V65.0651L64.3219 49.2098L65.0564 48.5728Z" fill="black"/>
</g>
</g>
<g style="mix-blend-mode:multiply" opacity="0.25">
<g style="mix-blend-mode:multiply" opacity="0.25">
<path d="M46.0309 73.6577C45.8305 73.8887 45.6302 74.1116 45.4224 74.3346C44.4578 75.4017 43.4634 76.421 42.4468 77.4244C41.2225 78.6349 39.9684 79.8135 38.6995 80.9682C38.0762 81.5575 37.4232 82.107 36.7851 82.6803C36.1469 83.2537 35.4939 83.8111 34.8409 84.3606C34.1879 84.9101 33.5424 85.4835 32.8745 86.017C32.2735 86.4948 31.6798 86.9886 31.0788 87.4584C31.0268 88.6609 30.9675 89.8634 30.8784 91.0579C30.7746 92.3719 30.6707 93.6859 30.5 94.9998V87.124L45.4224 74.1913V74.1833L46.0309 73.6577Z" fill="#675858"/>
</g>
</g>
<g style="mix-blend-mode:multiply" opacity="0.25">
<g style="mix-blend-mode:multiply" opacity="0.25">
<path d="M85.4995 29.6992V94.9997H37.8013C40.5394 94.8882 43.2849 94.8245 46.0305 94.7528H46.1344L49.7258 94.6573L55.6844 94.5299L61.6504 94.4263L65.0564 94.3865H65.227L73.5749 94.291L84.7724 94.2272C84.7576 89.043 84.76 83.8588 84.7798 78.6746C84.7798 73.2355 84.8392 67.7885 84.8763 62.3495L84.9727 54.1869L85.1063 46.0243L85.2844 37.8618C85.3363 35.1383 85.4105 32.4227 85.4995 29.6992Z" fill="black"/>
</g>
</g>
<g style="mix-blend-mode:multiply" opacity="0.25">
<g style="mix-blend-mode:multiply" opacity="0.25">
<path d="M44.7766 75.0356C44.7247 75.1312 44.413 75.7046 43.901 76.5885C43.8965 76.5923 43.8928 76.5971 43.8902 76.6027C43.8876 76.6082 43.8863 76.6142 43.8861 76.6204L31.3976 93.7737L31.3828 93.7896C31.3834 93.7835 31.386 93.7778 31.3902 93.7737C31.4719 93.6224 32.1471 92.3801 33.2231 90.652C33.7944 89.7203 34.4771 88.6532 35.234 87.5303C35.9909 86.4075 36.8145 85.2209 37.6382 84.0423C38.4915 82.8797 39.33 81.709 40.1537 80.6419C40.9774 79.5748 41.7491 78.5794 42.4392 77.7432C43.7229 76.1665 44.6727 75.1392 44.7766 75.0356Z" fill="black"/>
</g>
</g>
<g style="mix-blend-mode:multiply" opacity="0.25">
<g style="mix-blend-mode:multiply" opacity="0.25">
<path d="M64.314 50.3804L46.5422 93.7574C46.5393 93.769 46.5342 93.7799 46.5273 93.7893C46.5273 93.7893 46.7648 93.0885 47.1952 91.878C47.6404 90.6676 48.2415 88.9236 49.0206 86.861C49.7849 84.7985 50.705 82.3935 51.7142 79.8293C52.7234 77.2651 53.8216 74.5495 54.9198 71.826C56.0403 69.1184 57.1608 66.4029 58.2516 63.8785C59.3275 61.354 60.3515 59.0048 61.2568 56.998C62.1473 54.9912 62.9338 53.3348 63.4681 52.1722C63.9378 51.1528 64.2472 50.5237 64.314 50.3804Z" fill="black"/>
</g>
</g>
<g style="mix-blend-mode:multiply" opacity="0.25">
<g style="mix-blend-mode:multiply" opacity="0.25">
<path d="M83.8894 25.4867C84.3272 24.0771 84.6239 23.1215 84.7501 22.7393L65.9395 91.7587C66.0211 91.4322 66.251 90.4128 66.6221 88.852C67.097 86.9487 67.7277 84.2013 68.5662 80.9363C69.4047 77.6713 70.3472 73.8568 71.4231 69.7795C72.4842 65.7022 73.6566 61.37 74.829 57.0299C76.0163 52.7058 77.2036 48.3736 78.3612 44.3282C79.4965 40.2748 80.6243 36.5081 81.5519 33.2749C82.4794 30.0417 83.3328 27.366 83.8894 25.4867Z" fill="black"/>
</g>
</g>
<g style="mix-blend-mode:multiply" opacity="0.25">
<g style="mix-blend-mode:multiply" opacity="0.25">
<path d="M84.7942 22.5947C84.7918 22.614 84.7868 22.6327 84.7795 22.6505H84.772C84.7781 22.6313 84.7855 22.6127 84.7942 22.5947Z" fill="black"/>
</g>
</g>
<g style="mix-blend-mode:screen" opacity="0.6">
<g style="mix-blend-mode:screen" opacity="0.6">
<path d="M31.3902 93.7734H31.3976L31.3828 93.7901C31.3834 93.7837 31.386 93.7778 31.3902 93.7734Z" fill="white"/>
</g>
</g>
<g style="mix-blend-mode:screen" opacity="0.4">
<g style="mix-blend-mode:screen" opacity="0.4">
<path d="M43.9236 76.5566C43.649 77.0106 43.3225 77.56 42.9441 78.1653C42.3727 79.089 41.6901 80.1561 40.9332 81.279C40.1763 82.4018 39.3526 83.5884 38.5216 84.767C37.6756 85.9376 36.8371 87.1003 36.0134 88.1674C35.1898 89.2345 34.4106 90.2299 33.728 91.0661C32.4517 92.6349 31.5093 93.6542 31.3979 93.7737L43.9236 76.5566Z" fill="white"/>
</g>
</g>
<g style="mix-blend-mode:screen" opacity="0.4">
<g style="mix-blend-mode:screen" opacity="0.4">
<path d="M64.3292 50.3486C64.3292 50.3486 64.0991 51.0494 63.6613 52.2599C63.2235 53.4703 62.615 55.2143 61.8433 57.2769C61.0716 59.3394 60.1515 61.7444 59.1423 64.3086C58.148 66.8728 57.0424 69.5884 55.9368 72.3119C54.8163 75.0195 53.6957 77.7271 52.6124 80.2515C51.529 82.7759 50.505 85.1331 49.5997 87.1399C48.7092 89.1467 47.9227 90.8031 47.3958 91.9657C46.9209 92.9851 46.6093 93.6142 46.5425 93.7575L64.3143 50.3805C64.3172 50.3689 64.3223 50.358 64.3292 50.3486Z" fill="white"/>
</g>
</g>
<g style="mix-blend-mode:screen" opacity="0.6">
<g style="mix-blend-mode:screen" opacity="0.6">
<path d="M84.795 22.5947C84.7925 22.614 84.7876 22.6327 84.7802 22.6505C84.706 22.977 84.4685 23.9883 84.0975 25.5492C83.63 27.4524 82.9918 30.1999 82.1533 33.4649C81.3148 36.7299 80.3725 40.5444 79.304 44.6217C78.2354 48.699 77.063 53.0312 75.898 57.3713C74.7033 61.6954 73.516 66.0275 72.3584 70.073C71.2231 74.1264 70.0952 77.8931 69.1676 81.1262C68.2401 84.3594 67.3868 87.0351 66.8303 88.9145C66.3183 90.555 66.0066 91.5903 65.9324 91.8212C65.9312 91.8075 65.9338 91.7936 65.9398 91.7814V91.7575L84.7504 22.7381C84.756 22.7083 84.7634 22.6791 84.7728 22.6505C84.7788 22.6313 84.7862 22.6127 84.795 22.5947Z" fill="white"/>
</g>
</g>
<defs>
<linearGradient id="paint0_linear_240_1407" x1="38.2654" y1="75.7706" x2="38.2654" y2="91.9479" gradientUnits="userSpaceOnUse">
<stop stop-color="#3E6896"/>
<stop offset="0.247" stop-color="#355881"/>
<stop offset="0.75" stop-color="#1F324E"/>
<stop offset="1" stop-color="#131D32"/>
</linearGradient>
<linearGradient id="paint1_linear_240_1407" x1="55.5442" y1="54.3297" x2="55.5442" y2="85.2966" gradientUnits="userSpaceOnUse">
<stop stop-color="#49A09D"/>
<stop offset="0.149" stop-color="#4A989B"/>
<stop offset="0.375" stop-color="#4E8396"/>
<stop offset="0.65" stop-color="#54618E"/>
<stop offset="0.96" stop-color="#5D3283"/>
<stop offset="1" stop-color="#5F2C82"/>
</linearGradient>
<linearGradient id="paint2_linear_240_1407" x1="75.2782" y1="22.625" x2="75.2782" y2="81.8" gradientUnits="userSpaceOnUse">
<stop stop-color="#00F3FF"/>
<stop offset="0.238" stop-color="#00EFFC"/>
<stop offset="0.44" stop-color="#00E5F4"/>
<stop offset="0.629" stop-color="#00D3E7"/>
<stop offset="0.81" stop-color="#00BAD4"/>
<stop offset="0.983" stop-color="#009BBC"/>
<stop offset="1" stop-color="#0098BA"/>
</linearGradient>
<linearGradient id="paint3_linear_240_1407" x1="75.2782" y1="63.425" x2="75.2782" y2="102.95" gradientUnits="userSpaceOnUse">
<stop stop-color="#00F3FF"/>
<stop offset="0.238" stop-color="#00EFFC"/>
<stop offset="0.44" stop-color="#00E5F4"/>
<stop offset="0.629" stop-color="#00D3E7"/>
<stop offset="0.81" stop-color="#00BAD4"/>
<stop offset="0.983" stop-color="#009BBC"/>
<stop offset="1" stop-color="#0098BA"/>
</linearGradient>
<linearGradient id="paint4_linear_240_1407" x1="55.5442" y1="66.6329" x2="55.5442" y2="100.061" gradientUnits="userSpaceOnUse">
<stop stop-color="#3D6B6A"/>
<stop offset="0.149" stop-color="#4A989B"/>
<stop offset="0.375" stop-color="#4E8396"/>
<stop offset="0.65" stop-color="#54618E"/>
<stop offset="0.96" stop-color="#5D3283"/>
<stop offset="1" stop-color="#5F2C82"/>
</linearGradient>
<linearGradient id="paint5_linear_240_1407" x1="38.2654" y1="83.8592" x2="38.2654" y2="98.6707" gradientUnits="userSpaceOnUse">
<stop stop-color="#1A3B5F"/>
<stop offset="0.247" stop-color="#355881"/>
<stop offset="0.75" stop-color="#1F324E"/>
<stop offset="1" stop-color="#131D32"/>
</linearGradient>
</defs>
</svg>
