<svg width="14" height="14" viewBox="0 0 14 14" fill="none" xmlns="http://www.w3.org/2000/svg">
<path d="M7 13.2351C10.3795 13.2351 13.1788 10.4418 13.1788 7.05627C13.1788 3.67676 10.3795 0.877441 6.99401 0.877441C3.6145 0.877441 0.821167 3.67676 0.821167 7.05627C0.821167 10.4418 3.62049 13.2351 7 13.2351ZM7 12.0209C4.24854 12.0209 2.04138 9.80775 2.04138 7.05627C2.04138 4.30481 4.24255 2.09766 6.99401 2.09766C9.74549 2.09766 11.9586 4.30481 11.9646 7.05627C11.9646 9.80775 9.75144 12.0209 7 12.0209ZM3.86572 5.91382H10.1403C10.4394 5.91382 10.6487 5.7284 10.6487 5.44727C10.6487 5.16614 10.4394 4.97473 10.1403 4.97473H3.86572C3.56665 4.97473 3.36328 5.16614 3.36328 5.44727C3.36328 5.7284 3.56665 5.91382 3.86572 5.91382ZM4.69714 7.89367H9.31481C9.60794 7.89367 9.81724 7.70227 9.81724 7.42115C9.81724 7.14002 9.60794 6.94861 9.31481 6.94861H4.69714C4.39807 6.94861 4.18872 7.14002 4.18872 7.42115C4.18872 7.70227 4.39807 7.89367 4.69714 7.89367ZM5.55847 9.86752H8.44751C8.74658 9.86752 8.95598 9.6821 8.95598 9.40096C8.95598 9.11992 8.74658 8.92846 8.44751 8.92846H5.55847C5.2594 8.92846 5.05004 9.11992 5.05004 9.40096C5.05004 9.6821 5.2594 9.86752 5.55847 9.86752Z" fill="#37352F" fill-opacity="0.45"/>
</svg>
