<svg width="14" height="14" viewBox="0 0 14 14" fill="none" xmlns="http://www.w3.org/2000/svg">
<path d="M7 13.2351C10.3795 13.2351 13.1788 10.4418 13.1788 7.05627C13.1788 3.67676 10.3795 0.877441 6.99401 0.877441C3.6145 0.877441 0.821167 3.67676 0.821167 7.05627C0.821167 10.4418 3.62049 13.2351 7 13.2351ZM7 12.0209C4.24854 12.0209 2.04138 9.80775 2.04138 7.05627C2.04138 4.30481 4.24255 2.09766 6.99401 2.09766C9.74549 2.09766 11.9586 4.30481 11.9646 7.05627C11.9646 9.80775 9.75144 12.0209 7 12.0209ZM6.86242 8.24658C7.19141 8.24658 7.40076 8.06116 7.4187 7.81592C7.4187 7.79199 7.4187 7.76208 7.4187 7.74414C7.43664 7.43311 7.65198 7.22375 8.04077 6.97253C8.62696 6.58374 9.00979 6.2428 9.00979 5.54895C9.00979 4.55005 8.11254 3.98181 7.05383 3.98181C6.03101 3.98181 5.33117 4.44836 5.14575 5.01062C5.10986 5.1123 5.09192 5.21398 5.09192 5.32165C5.09192 5.60877 5.31921 5.7882 5.55847 5.7882C5.77979 5.7882 5.92334 5.69849 6.04297 5.53698L6.13867 5.41736C6.33606 5.08838 6.62317 4.91492 6.98205 4.91492C7.46655 4.91492 7.79553 5.20202 7.79553 5.60877C7.79553 5.9856 7.54431 6.17102 7.03589 6.52392C6.6112 6.81702 6.30017 7.12805 6.30017 7.67236V7.73816C6.30017 8.07312 6.50354 8.24658 6.86242 8.24658ZM6.85645 10.0829C7.23926 10.0829 7.55627 9.80171 7.55627 9.42494C7.55627 9.04808 7.23926 8.77298 6.85645 8.77298C6.46765 8.77298 6.15661 9.05412 6.15661 9.42494C6.15661 9.80171 6.47363 10.0829 6.85645 10.0829Z" fill="#37352F" fill-opacity="0.45"/>
</svg>
