<svg width="50" height="50" viewBox="0 0 50 50" fill="none" xmlns="http://www.w3.org/2000/svg">
<path d="M25.0003 4.99995C25.4605 4.99995 25.8337 4.62683 25.8337 4.16662V0.833325C25.8337 0.373121 25.4605 0 25.0003 0C24.5401 0 24.167 0.373121 24.167 0.833325V4.16662C24.167 4.62683 24.54 4.99995 25.0003 4.99995Z" fill="#FECD4C"/>
<path d="M14.6952 3.81847L16.3618 6.70428C16.5893 7.10438 17.0981 7.24427 17.4982 7.01677C17.8983 6.78928 18.0382 6.28053 17.8107 5.88043C17.8089 5.8772 17.807 5.87408 17.8051 5.87085L16.1385 2.98505C15.911 2.58495 15.4022 2.44505 15.0021 2.67255C14.602 2.90005 14.4621 3.40879 14.6896 3.80889C14.6914 3.81212 14.6933 3.81535 14.6952 3.81847Z" fill="#FECD4C"/>
<path d="M7.976 11.1329C7.97912 11.1348 7.98235 11.1365 7.98558 11.1384L10.8714 12.8051C11.2685 13.0378 11.779 12.9047 12.0117 12.5076C12.2444 12.1105 12.1113 11.6 11.7142 11.3673C11.7111 11.3654 11.7078 11.3636 11.7046 11.3618L8.8188 9.6951C8.42172 9.4624 7.91121 9.59552 7.6785 9.9926C7.44579 10.3896 7.57892 10.9002 7.976 11.1329Z" fill="#FECD4C"/>
<path d="M10.0004 19.9998C10.0004 19.5396 9.62732 19.1665 9.16711 19.1665H5.83381C5.37361 19.1665 5.00049 19.5396 5.00049 19.9998C5.00049 20.46 5.37361 20.8332 5.83381 20.8332H9.16711C9.62732 20.8332 10.0004 20.46 10.0004 19.9998Z" fill="#FECD4C"/>
<path d="M10.8811 27.1891C10.8779 27.1909 10.8747 27.1928 10.8714 27.1947L7.98564 28.8613C7.58554 29.0887 7.44555 29.5975 7.67294 29.9976C7.90033 30.3977 8.40908 30.5376 8.80918 30.3103C8.81241 30.3084 8.81564 30.3065 8.81886 30.3046L11.7047 28.638C12.1048 28.4106 12.2448 27.9019 12.0174 27.5018C11.79 27.1017 11.2812 26.9617 10.8811 27.1891Z" fill="#FECD4C"/>
<path d="M42.0245 28.867C42.0213 28.8651 42.0181 28.8632 42.0148 28.8613L39.129 27.1947C38.7321 26.9619 38.2214 27.095 37.9886 27.492C37.7558 27.889 37.889 28.3996 38.2859 28.6324C38.2892 28.6343 38.2924 28.6361 38.2956 28.638L41.1814 30.3047C41.5784 30.5375 42.089 30.4043 42.3218 30.0074C42.5546 29.6103 42.4215 29.0998 42.0245 28.867Z" fill="#FECD4C"/>
<path d="M44.1666 19.1665H40.8333C40.3731 19.1665 40 19.5396 40 19.9998C40 20.46 40.3731 20.8332 40.8333 20.8332H44.1666C44.6268 20.8332 45 20.46 45 19.9998C45 19.5396 44.6268 19.1665 44.1666 19.1665Z" fill="#FECD4C"/>
<path d="M38.7134 12.9163C38.8597 12.9163 39.0034 12.8778 39.1301 12.8046L42.0159 11.138C42.416 10.9105 42.5559 10.4017 42.3284 10.0016C42.1009 9.60155 41.5921 9.46165 41.192 9.68915C41.1888 9.69092 41.1857 9.6928 41.1825 9.69467L38.2967 11.3613C37.8981 11.5914 37.7616 12.1011 37.9917 12.4996C38.1406 12.7575 38.4157 12.9163 38.7134 12.9163Z" fill="#FECD4C"/>
<path d="M32.4992 7.00961C32.4995 7.00982 32.4998 7.01002 32.5001 7.01013C32.8988 7.24002 33.4084 7.10325 33.6383 6.70451C33.6383 6.7044 33.6384 6.7043 33.6384 6.7043L35.3051 3.81849C35.5379 3.42152 35.4048 2.9109 35.0078 2.67809C34.6108 2.44528 34.1002 2.5784 33.8674 2.97538C33.8655 2.97861 33.8637 2.98184 33.8618 2.98507L32.1951 5.87087C31.9647 6.2693 32.1008 6.77909 32.4992 7.00961Z" fill="#FECD4C"/>
<path d="M26.667 33.333C27.1272 33.333 27.5004 32.9599 27.5004 32.4997V23.3331H29.167C31.0079 23.3331 32.5003 21.8407 32.5003 19.9998C32.5003 18.1589 31.0079 16.6665 29.167 16.6665C27.3261 16.6665 25.8337 18.1589 25.8337 19.9998V21.6665H24.1671V19.9998C24.1671 18.1589 22.6747 16.6665 20.8338 16.6665C18.9929 16.6665 17.5005 18.1589 17.5005 19.9998C17.5005 21.8407 18.9929 23.3331 20.8338 23.3331H22.5004V32.4997C22.5004 32.9599 22.8735 33.333 23.3337 33.333C23.794 33.333 24.1671 32.9599 24.1671 32.4997V23.3331H25.8337V32.4997C25.8337 32.9599 26.2067 33.333 26.667 33.333ZM27.5004 19.9998C27.5004 19.0793 28.2465 18.3332 29.167 18.3332C30.0875 18.3332 30.8337 19.0793 30.8337 19.9998C30.8337 20.9203 30.0875 21.6665 29.167 21.6665H27.5004V19.9998ZM22.5004 21.6665H20.8338C19.9133 21.6665 19.1671 20.9203 19.1671 19.9998C19.1671 19.0793 19.9133 18.3332 20.8338 18.3332C21.7543 18.3332 22.5004 19.0793 22.5004 19.9998V21.6665Z" fill="#FECD4C"/>
<path d="M25.6479 6.68214C18.2926 6.32881 12.0435 12.0049 11.6902 19.3601C11.4878 23.5718 13.2896 27.6309 16.5488 30.3061C17.1362 30.7662 17.4857 31.4659 17.5005 32.2119V34.166C17.5048 35.2216 18.1718 36.1608 19.1671 36.5127V37.4993C19.1693 38.1163 19.401 38.7105 19.8171 39.166C18.9504 40.108 18.9504 41.5572 19.8171 42.4993C18.8907 43.5149 18.9629 45.0892 19.9786 46.0157C20.4399 46.4365 21.0426 46.6686 21.6671 46.6659C22.1156 46.6777 22.4888 46.3235 22.5005 45.875C22.5051 45.7 22.453 45.5281 22.3521 45.3851C22.3257 45.3341 22.2945 45.2858 22.2587 45.2409C22.1902 45.1782 22.112 45.127 22.0271 45.0892C22.0029 45.0767 21.9787 45.0667 21.9537 45.0567C21.8694 45.026 21.7809 45.0083 21.6912 45.0042C21.6829 45.0042 21.6754 44.9992 21.6671 44.9992C21.2069 44.9992 20.8338 44.6261 20.8338 44.1659C20.8338 43.7057 21.2069 43.3326 21.6671 43.3326H25.0004C25.4606 43.3326 25.8337 42.9595 25.8337 42.4993C25.8337 42.0391 25.4606 41.6659 25.0004 41.6659H21.6671C21.2069 41.6659 20.8338 41.2928 20.8338 40.8326C20.8338 40.3724 21.2069 39.9993 21.6671 39.9993H25.0004C25.4606 39.9993 25.8337 39.6262 25.8337 39.166C25.8337 38.7058 25.4606 38.3326 25.0004 38.3326H21.6671C21.2069 38.3326 20.8338 37.9595 20.8338 37.4993V36.666H25.0004C25.4606 36.666 25.8337 36.2929 25.8337 35.8327C25.8337 35.3725 25.4606 34.9993 25.0004 34.9993H20.0004C19.5402 34.9993 19.1671 34.6262 19.1671 34.166V32.2119C19.1535 30.9658 18.5796 29.7921 17.6046 29.0161C12.6268 24.9251 11.9079 17.5733 15.9989 12.5954C18.3391 9.74795 21.8872 8.1738 25.5687 8.34963C31.7256 8.71587 36.5619 13.7618 36.6669 19.9287C36.6968 23.4757 35.1019 26.8414 32.3378 29.0644C31.3701 29.8615 30.8168 31.0549 30.8336 32.3085V34.166C30.8336 34.6262 30.4605 34.9993 30.0003 34.9993H27.5003C27.0401 34.9993 26.667 35.3725 26.667 35.8327C26.667 36.2929 27.0401 36.666 27.5003 36.666H29.167V37.4993C29.167 37.9595 28.7939 38.3326 28.3337 38.3326H27.5003C27.0401 38.3326 26.667 38.7058 26.667 39.166C26.667 39.6262 27.0401 39.9993 27.5003 39.9993H28.3337C28.7939 39.9993 29.167 40.3724 29.167 40.8326C29.167 41.2928 28.7939 41.6659 28.3337 41.6659H27.5003C27.0401 41.6659 26.667 42.0391 26.667 42.4993C26.667 42.9595 27.0401 43.3326 27.5003 43.3326H28.3337C28.7939 43.3326 29.167 43.7057 29.167 44.1659C29.167 44.6261 28.7939 44.9992 28.3337 44.9992H24.1671C23.7069 44.9992 23.3337 45.3724 23.3337 45.8326C23.3337 46.2928 23.7069 46.6659 24.1671 46.6659H27.3579C26.8978 47.9677 25.4694 48.6499 24.1677 48.1898C23.7691 48.049 23.4129 47.8093 23.1321 47.4934C22.826 47.1496 22.2992 47.119 21.9554 47.4251C21.6117 47.7311 21.581 48.258 21.8871 48.6017C23.4111 50.3191 26.0388 50.4759 27.7562 48.9519C28.4656 48.3224 28.9384 47.4694 29.0962 46.5342C30.4013 46.1263 31.1285 44.7377 30.7207 43.4326C30.6124 43.0858 30.429 42.7672 30.1837 42.4993C31.0503 41.5572 31.0503 40.108 30.1837 39.166C30.5998 38.7105 30.8315 38.1163 30.8336 37.4993V36.5127C31.829 36.1608 32.4959 35.2216 32.5003 34.166V32.3085C32.4892 31.5599 32.8135 30.8454 33.3845 30.3611C36.5453 27.8199 38.3688 23.9717 38.3336 19.9162C38.2132 12.8675 32.6851 7.10058 25.6479 6.68214Z" fill="#FECD4C"/>
</svg>
